<svg width="800" height="748" viewBox="0 0 800 748" fill="none" xmlns="http://www.w3.org/2000/svg">
<g clip-path="url(#clip0_2116_364)">
<path d="M52.8864 128.303H41.25V161.339H52.8864V150.951H85.5097V138.796H52.8864V128.303Z" fill="#F15B24"/>
<path d="M41.25 101.501H56.8344V111.682H41.25V123.837H85.5097V111.682H68.0552V101.501H85.5097V89.4498H41.25V101.501Z" fill="#F15B24"/>
<path d="M73.8734 69.2938H67.7435V57.9699H56.4188V69.2938H52.8864V54.2299H41.25V81.4488H85.5097V53.8143H73.8734V69.2938Z" fill="#F15B24"/>
<path d="M170.911 315.509H159.69V326.418H156.053V311.977H144.417V338.469H188.677V326.418H170.911V315.509Z" fill="#F15B24"/>
<path d="M179.016 273.54H154.185C151.487 273.276 148.786 274.016 146.6 275.618C145.747 276.692 145.115 277.924 144.74 279.244C144.366 280.563 144.256 281.944 144.418 283.306V298.162C144.148 300.844 144.93 303.526 146.6 305.642C148.743 307.338 151.468 308.122 154.185 307.823H179.016C181.698 308.094 184.38 307.312 186.496 305.642C188.203 303.541 189.024 300.858 188.782 298.162V283.306C189.104 281.958 189.075 280.551 188.699 279.218C188.322 277.885 187.61 276.671 186.63 275.691C185.651 274.712 184.437 274 183.104 273.623C181.77 273.247 180.363 273.218 179.016 273.54ZM176.626 295.668H155.847V285.28H176.626V295.668Z" fill="#F15B24"/>
<path d="M188.781 254.528H172.054V251.1L188.781 244.763V231.777L171.119 239.361C169.872 237.179 166.963 236.036 162.391 236.036H154.184C149.82 236.036 147.015 237.075 145.664 239.257C144.687 241.33 144.258 243.619 144.417 245.905V266.683H188.781V254.528ZM160.937 254.528H155.846V248.399H160.106L160.937 254.528Z" fill="#F15B24"/>
<path d="M209.355 87.5792H183.901V79.2681H217.771V51.9453H155.537V155.834H183.901V113.967H209.355V87.5792Z" fill="#F15B24"/>
<path d="M248.731 155.834H277.406C283.734 156.525 290.079 154.697 295.069 150.744C298.988 145.698 300.812 139.335 300.159 132.979V51.9453H271.9V128.511H254.133V51.9453H225.874V132.979C225.177 139.339 227.005 145.718 230.965 150.744C235.991 154.703 242.37 156.531 248.731 155.834Z" fill="#F15B24"/>
<path d="M346.185 105.968L373.302 155.834H401.562V51.9453H373.302V101.708L346.185 51.9453H317.718V155.834H346.185V105.968Z" fill="#F15B24"/>
<path d="M492.471 146.691C494.044 142.299 494.716 137.635 494.445 132.978V74.8C494.445 64.4111 491.952 57.8661 486.861 54.8533C482.003 52.5568 476.635 51.5547 471.276 51.9444H419.328V155.833H471.276C482.601 155.833 489.666 152.821 492.471 146.691ZM466.185 127.783C466.185 127.783 466.185 128.511 465.25 128.511H447.796V79.2672H465.25C465.874 79.2672 466.185 79.2672 466.185 79.9944V127.783Z" fill="#F15B24"/>
<path d="M279.898 335.77H312.626C319.015 336.427 325.413 334.605 330.496 330.679C334.425 325.638 336.25 319.271 335.587 312.914V274.163H295.691V300.447H307.119V308.447H285.509V259.723H307.119V265.956L335.587 259.723V254.944C336.283 248.584 334.455 242.205 330.496 237.179C325.413 233.253 319.015 231.431 312.626 232.088H279.898C273.571 231.397 267.225 233.226 262.236 237.179C258.277 242.205 256.449 248.584 257.145 254.944V313.122C256.482 319.479 258.307 325.846 262.236 330.887C267.256 334.766 273.599 336.519 279.898 335.77Z" fill="#F15B24"/>
<path d="M410.289 308.446H380.263V231.88H351.796V335.769H410.289V308.446Z" fill="#F15B24"/>
<path d="M442.807 335.768H477.923C484.281 336.431 490.648 334.607 495.69 330.678C499.619 325.637 501.444 319.27 500.781 312.913V254.735C501.46 248.344 499.635 241.939 495.69 236.866C490.628 232.984 484.266 231.198 477.923 231.879H442.807C436.481 231.211 430.144 233.037 425.144 236.97C421.185 241.996 419.357 248.375 420.053 254.735V312.913C419.39 319.27 421.215 325.637 425.144 330.678C430.144 334.61 436.481 336.437 442.807 335.768ZM448.521 259.722H472.313V308.965H448.521V259.722Z" fill="#F15B24"/>
<path d="M590.548 326.628C591.964 322.203 592.528 317.55 592.211 312.915V301.279C592.483 296.713 591.242 292.185 588.678 288.397C586.14 285.251 582.693 282.966 578.808 281.852C582.764 280.905 586.368 278.851 589.198 275.93C591.161 272.834 592.105 269.201 591.899 265.541V255.152C592.379 251.759 592.096 248.301 591.072 245.03C590.048 241.759 588.307 238.758 585.977 236.245C580.775 233.176 574.749 231.797 568.73 232.297H516.782V336.186H569.354C580.678 335.77 587.743 332.446 590.548 326.628ZM545.146 259.723H562.704C563.328 259.723 563.639 259.723 563.639 260.451V270.008C563.639 270.008 563.639 270.84 562.704 270.84H545.146V259.723ZM564.263 308.24C564.263 308.759 564.263 308.967 563.328 308.967H545.146V296.604H563.328C563.951 296.604 564.263 296.604 564.263 297.435V308.24Z" fill="#F15B24"/>
<path d="M629.82 314.783H656.418L661.716 335.561H691.535L661.197 231.672H625.665L596.47 335.561H625.145L629.82 314.783ZM642.6 259.722L650.08 288.915H635.95L642.6 259.722Z" fill="#F15B24"/>
<path d="M758.135 308.446H728.006V231.88H699.538V335.769H758.135V308.446Z" fill="#F15B24"/>
<path d="M800 386.882V180.559H541.714V0H0V206.323H103.169V361.118H0V567.441H154.805V748H748.052V541.677H593.247V386.882H800ZM773.818 206.323V361.118H232.104V206.323H773.818ZM128.935 25.7644H515.844V180.559H128.935V25.7644ZM25.7662 180.559V25.7644H103.169V180.559H25.7662ZM128.935 206.323H206.338V361.118H128.935V206.323ZM722.286 567.441V722.236H180.571V567.441H722.286ZM567.481 541.677H25.7662V386.882H567.481V541.677Z" fill="#F15B24"/>
<path d="M104.522 448.801H80.8337V412.128H52.3662V516.017H80.8337V474.981H104.522V516.017H132.99V412.128H104.522V448.801Z" fill="#F15B24"/>
<path d="M196.472 488.279H178.809V412.128H150.549V493.266C149.858 499.593 151.687 505.938 155.64 510.927C160.667 514.886 167.046 516.714 173.407 516.017H201.978C208.338 516.714 214.718 514.886 219.744 510.927C223.648 505.913 225.471 499.588 224.835 493.266V412.128H196.472V488.279Z" fill="#F15B24"/>
<path d="M270.757 470.41L290.601 505.94H295.692L315.744 468.644V516.017H344.211V412.128H315.744L293.822 452.853L270.757 412.128H242.289V516.017H270.757V470.41Z" fill="#F15B24"/>
<path d="M385.665 495.031H412.262L417.561 515.809H447.379L417.042 411.92H381.509L352.314 515.809H380.99L385.665 495.031ZM398.444 439.451L405.925 468.644H391.795L398.444 439.451Z" fill="#F15B24"/>
<path d="M483.953 466.151L511.07 516.017H539.33V412.128H511.07V461.891L483.953 412.128H455.485V516.017H483.953V466.151Z" fill="#F15B24"/>
<path d="M234.807 657.408H243.015L257.665 696.054H288.21L270.34 654.499C275.639 651.59 278.34 644.837 278.34 633.721V615.333C278.34 604.944 275.743 598.399 270.755 595.386C265.887 592.991 260.486 591.883 255.067 592.166H206.34V696.054H234.807V657.408ZM234.807 619.8H249.353C249.976 619.8 250.288 619.8 250.288 620.527V630.916C250.288 630.916 250.288 631.539 249.353 631.539H234.807V619.8Z" fill="#F15B24"/>
<path d="M326.028 592.478H297.561V696.367H326.028V592.478Z" fill="#F15B24"/>
<path d="M364.991 696.055H397.822C404.136 696.775 410.487 695.066 415.588 691.277C419.541 686.288 421.37 679.943 420.679 673.615V634.865H380.783V661.045H392.315V669.044H370.705V619.801H392.315V626.034L420.783 620.217V615.334C421.417 608.963 419.555 602.595 415.588 597.569C410.577 593.558 404.218 591.624 397.822 592.167H364.991C358.667 591.52 352.338 593.344 347.328 597.257C343.447 602.323 341.628 608.67 342.238 615.022V673.304C341.634 679.623 343.454 685.936 347.328 690.965C352.338 694.878 358.667 696.702 364.991 696.055Z" fill="#F15B24"/>
<path d="M465.456 655.331H489.248V696.367H517.715V592.478H489.248V629.151H465.456V592.478H436.988V696.367H465.456V655.331Z" fill="#F15B24"/>
<path d="M552.937 696.367H581.404V619.801H605.924V592.478H528.313V619.801H552.937V696.367Z" fill="#F15B24"/>
<path d="M636.679 696.056H674.082C677.219 696.76 680.483 696.661 683.572 695.769C686.661 694.877 689.475 693.22 691.754 690.952C694.033 688.683 695.702 685.877 696.609 682.792C697.515 679.708 697.629 676.444 696.939 673.304V655.435C697.63 649.108 695.801 642.763 691.848 637.774C686.807 633.845 680.439 632.021 674.082 632.684H642.913V618.659H667.225V629.047L696.108 623.334V615.542C696.76 609.186 694.937 602.823 691.017 597.777C688.554 595.712 685.708 594.153 682.641 593.19C679.575 592.228 676.348 591.88 673.147 592.167H637.822C634.667 591.435 631.378 591.517 628.264 592.405C625.149 593.292 622.311 594.956 620.016 597.241C617.721 599.525 616.044 602.356 615.142 605.466C614.24 608.576 614.144 611.865 614.861 615.022V633.722C614.144 636.88 614.24 640.169 615.142 643.279C616.044 646.389 617.721 649.219 620.016 651.504C622.311 653.789 625.149 655.453 628.264 656.34C631.378 657.228 634.667 657.31 637.822 656.578H668.991V670.291H642.082V659.903L613.614 666.967V674.135C612.952 680.477 614.819 686.823 618.809 691.796C624.002 695.448 630.397 696.973 636.679 696.056Z" fill="#F15B24"/>
</g>
<defs>
<clipPath id="clip0_2116_364">
<rect width="800" height="748" fill="white"/>
</clipPath>
</defs>
</svg>
